<svg width="25" height="24" viewBox="0 0 25 24" fill="none" xmlns="http://www.w3.org/2000/svg">
<path d="M15.036 21.6861C15.074 21.7807 15.1401 21.8615 15.2253 21.9176C15.3106 21.9737 15.4109 22.0023 15.5129 21.9997C15.6149 21.9971 15.7136 21.9633 15.7959 21.903C15.8781 21.8426 15.94 21.7586 15.973 21.6621L22.473 2.66206C22.5051 2.57345 22.5112 2.47756 22.4907 2.38561C22.4702 2.29366 22.4239 2.20945 22.3573 2.14283C22.2907 2.07622 22.2064 2.02995 22.1145 2.00945C22.0225 1.98894 21.9267 1.99505 21.838 2.02706L2.83805 8.52706C2.74155 8.56015 2.65747 8.62197 2.59712 8.70423C2.53677 8.78648 2.50302 8.88523 2.50041 8.98722C2.4978 9.0892 2.52644 9.18955 2.58251 9.27478C2.63857 9.36002 2.71937 9.42606 2.81405 9.46406L10.7441 12.6441C10.9947 12.7444 11.2225 12.8945 11.4136 13.0853C11.6047 13.2761 11.7552 13.5036 11.856 13.7541L15.036 21.6861Z" stroke="white" stroke-width="2" stroke-linecap="round" stroke-linejoin="round"/>
<path d="M22.3541 2.14697L11.4141 13.086" stroke="white" stroke-width="2" stroke-linecap="round" stroke-linejoin="round"/>
</svg>
