<svg width="84" height="86" viewBox="0 0 84 86" fill="none" xmlns="http://www.w3.org/2000/svg">
<path d="M16.7499 1.16089L32.7499 69.1609H42.9999H52.7499L69.2499 1.16089" stroke="#3D1712" stroke-width="2"/>
<path d="M37.9381 65.1609C36.9951 65.1609 36.1801 64.5021 35.9825 63.5799L28.2682 27.5799C28.0015 26.3349 28.9506 25.1609 30.2239 25.1609H55.2759C56.5492 25.1609 57.4983 26.3349 57.2315 27.5799L49.5172 63.5799C49.3196 64.5021 48.5047 65.1609 47.5616 65.1609H37.9381Z" fill="#3D1712" stroke="#3D1712" stroke-width="2"/>
<circle cx="57.2502" cy="5.16089" r="3.5" fill="#3D1712" stroke="#3D1712"/>
<path d="M16.7502 25.6611C16.7502 17.6609 1.25023 14.1609 1.25024 38.6609C1.2502 73.1609 16.7502 63.6609 16.7502 55.6609M1.25024 84.6609C11.6502 71.0609 20.9168 66.4942 22.7502 66.6609C28.2502 67.1609 25.2502 83.0609 29.2502 84.6609C34.2502 86.6609 51.2499 71.1609 67.2499 71.1609C76.2499 71.1609 82.4165 79.6609 82.7499 84.6609" stroke="#3D1712" stroke-width="2"/>
</svg>
