<svg width="125" height="122" viewBox="0 0 125 122" fill="none" xmlns="http://www.w3.org/2000/svg">
<path d="M123.997 60.8418C123.997 94.1569 96.3621 121.184 62.2485 121.184C28.1349 121.184 0.5 94.1569 0.5 60.8418C0.5 27.5267 28.1349 0.5 62.2485 0.5C96.3621 0.5 123.997 27.5267 123.997 60.8418Z" fill="white" stroke="black"/>
<path d="M81.0639 79.1498V75.1054C81.0639 72.9601 80.0511 70.9027 78.2483 69.3858C76.4456 67.8688 74.0006 67.0166 71.4511 67.0166H52.2256C49.6761 67.0166 47.2311 67.8688 45.4283 69.3858C43.6256 70.9027 42.6128 72.9601 42.6128 75.1054V79.1498M71.4511 50.839C71.4511 55.3064 67.1473 58.9278 61.8383 58.9278C56.5293 58.9278 52.2256 55.3064 52.2256 50.839C52.2256 46.3717 56.5293 42.7502 61.8383 42.7502C67.1473 42.7502 71.4511 46.3717 71.4511 50.839Z" stroke="#1E1E1E" stroke-width="4" stroke-linecap="round" stroke-linejoin="round"/>
</svg>
