<svg width="222" height="45" viewBox="0 0 222 45" fill="none" xmlns="http://www.w3.org/2000/svg">
<g filter="url(#filter0_d_383_1428)">
<rect x="2" y="1.83911" width="218" height="40" rx="4" fill="white"/>
<path fill-rule="evenodd" clip-rule="evenodd" d="M33.64 22.0435C33.64 21.4054 33.5827 20.7917 33.4764 20.2026H25V23.684H29.8436C29.635 24.809 29.0009 25.7622 28.0477 26.4004V28.6585H30.9564C32.6582 27.0917 33.64 24.7845 33.64 22.0435Z" fill="#4285F4"/>
<path fill-rule="evenodd" clip-rule="evenodd" d="M25 30.8391C27.43 30.8391 29.4673 30.0332 30.9564 28.6586L28.0477 26.4004C27.2418 26.9404 26.2109 27.2595 25 27.2595C22.6559 27.2595 20.6718 25.6763 19.9641 23.5491H16.9573V25.8809C18.4382 28.8223 21.4818 30.8391 25 30.8391Z" fill="#34A853"/>
<path fill-rule="evenodd" clip-rule="evenodd" d="M19.9641 23.5492C19.7841 23.0092 19.6818 22.4324 19.6818 21.8392C19.6818 21.246 19.7841 20.6692 19.9641 20.1292V17.7974H16.9573C16.3477 19.0124 16 20.3869 16 21.8392C16 23.2915 16.3477 24.666 16.9573 25.881L19.9641 23.5492Z" fill="#FBBC05"/>
<path fill-rule="evenodd" clip-rule="evenodd" d="M25 16.4187C26.3214 16.4187 27.5077 16.8727 28.4405 17.7646L31.0218 15.1832C29.4632 13.7309 27.4259 12.8391 25 12.8391C21.4818 12.8391 18.4382 14.8559 16.9573 17.7973L19.9641 20.1291C20.6718 18.0018 22.6559 16.4187 25 16.4187Z" fill="#EA4335"/>
<path d="M55.8651 20.3689C55.7827 20.1104 55.6719 19.8789 55.5327 19.6743C55.3963 19.467 55.233 19.2908 55.0426 19.1459C54.8523 18.9982 54.6349 18.886 54.3906 18.8093C54.1491 18.7326 53.8835 18.6942 53.5938 18.6942C53.1023 18.6942 52.6591 18.8206 52.2642 19.0735C51.8693 19.3263 51.5568 19.6971 51.3267 20.1857C51.0994 20.6715 50.9858 21.2667 50.9858 21.9712C50.9858 22.6786 51.1009 23.2766 51.331 23.7652C51.5611 24.2539 51.8764 24.6246 52.277 24.8775C52.6776 25.1303 53.1335 25.2567 53.6449 25.2567C54.1193 25.2567 54.5327 25.1601 54.8849 24.967C55.2401 24.7738 55.5142 24.501 55.7074 24.1488C55.9034 23.7937 56.0014 23.376 56.0014 22.8959L56.3423 22.9598H53.8452V21.8732H57.2756V22.8661C57.2756 23.5991 57.1193 24.2354 56.8068 24.7752C56.4972 25.3121 56.0682 25.7269 55.5199 26.0195C54.9744 26.3121 54.3494 26.4584 53.6449 26.4584C52.8551 26.4584 52.1619 26.2766 51.5653 25.913C50.9716 25.5493 50.5085 25.0337 50.1761 24.3661C49.8438 23.6956 49.6776 22.9002 49.6776 21.9797C49.6776 21.2837 49.7741 20.6587 49.9673 20.1047C50.1605 19.5508 50.4318 19.0806 50.7812 18.6942C51.1335 18.305 51.5469 18.0081 52.0213 17.8036C52.4986 17.5962 53.0199 17.4925 53.5852 17.4925C54.0568 17.4925 54.4957 17.5621 54.902 17.7013C55.3111 17.8405 55.6747 18.038 55.9929 18.2937C56.3139 18.5493 56.5795 18.8533 56.7898 19.2056C57 19.555 57.142 19.9428 57.2159 20.3689H55.8651ZM61.6019 26.4712C60.9883 26.4712 60.4528 26.3306 59.9954 26.0493C59.538 25.7681 59.1829 25.3746 58.93 24.8689C58.6772 24.3633 58.5508 23.7723 58.5508 23.0962C58.5508 22.4172 58.6772 21.8235 58.93 21.315C59.1829 20.8064 59.538 20.4116 59.9954 20.1303C60.4528 19.8491 60.9883 19.7084 61.6019 19.7084C62.2156 19.7084 62.7511 19.8491 63.2085 20.1303C63.6658 20.4116 64.021 20.8064 64.2738 21.315C64.5266 21.8235 64.6531 22.4172 64.6531 23.0962C64.6531 23.7723 64.5266 24.3633 64.2738 24.8689C64.021 25.3746 63.6658 25.7681 63.2085 26.0493C62.7511 26.3306 62.2156 26.4712 61.6019 26.4712ZM61.6062 25.4016C62.0039 25.4016 62.3335 25.2965 62.5948 25.0863C62.8562 24.876 63.0494 24.5962 63.1744 24.2468C63.3022 23.8973 63.3661 23.5124 63.3661 23.092C63.3661 22.6743 63.3022 22.2908 63.1744 21.9414C63.0494 21.5891 62.8562 21.3064 62.5948 21.0934C62.3335 20.8803 62.0039 20.7738 61.6062 20.7738C61.2056 20.7738 60.8732 20.8803 60.609 21.0934C60.3477 21.3064 60.1531 21.5891 60.0252 21.9414C59.9002 22.2908 59.8377 22.6743 59.8377 23.092C59.8377 23.5124 59.9002 23.8973 60.0252 24.2468C60.1531 24.5962 60.3477 24.876 60.609 25.0863C60.8732 25.2965 61.2056 25.4016 61.6062 25.4016ZM68.8324 26.4712C68.2188 26.4712 67.6832 26.3306 67.2259 26.0493C66.7685 25.7681 66.4134 25.3746 66.1605 24.8689C65.9077 24.3633 65.7812 23.7723 65.7812 23.0962C65.7812 22.4172 65.9077 21.8235 66.1605 21.315C66.4134 20.8064 66.7685 20.4116 67.2259 20.1303C67.6832 19.8491 68.2188 19.7084 68.8324 19.7084C69.446 19.7084 69.9815 19.8491 70.4389 20.1303C70.8963 20.4116 71.2514 20.8064 71.5043 21.315C71.7571 21.8235 71.8835 22.4172 71.8835 23.0962C71.8835 23.7723 71.7571 24.3633 71.5043 24.8689C71.2514 25.3746 70.8963 25.7681 70.4389 26.0493C69.9815 26.3306 69.446 26.4712 68.8324 26.4712ZM68.8366 25.4016C69.2344 25.4016 69.5639 25.2965 69.8253 25.0863C70.0866 24.876 70.2798 24.5962 70.4048 24.2468C70.5327 23.8973 70.5966 23.5124 70.5966 23.092C70.5966 22.6743 70.5327 22.2908 70.4048 21.9414C70.2798 21.5891 70.0866 21.3064 69.8253 21.0934C69.5639 20.8803 69.2344 20.7738 68.8366 20.7738C68.4361 20.7738 68.1037 20.8803 67.8395 21.0934C67.5781 21.3064 67.3835 21.5891 67.2557 21.9414C67.1307 22.2908 67.0682 22.6743 67.0682 23.092C67.0682 23.5124 67.1307 23.8973 67.2557 24.2468C67.3835 24.5962 67.5781 24.876 67.8395 25.0863C68.1037 25.2965 68.4361 25.4016 68.8366 25.4016ZM76.0501 28.93C75.5302 28.93 75.0827 28.8618 74.7077 28.7255C74.3356 28.5891 74.0316 28.4087 73.7958 28.1843C73.56 27.9599 73.3839 27.7141 73.2674 27.4471L74.3626 26.9954C74.4393 27.1204 74.5415 27.2525 74.6694 27.3917C74.8001 27.5337 74.9762 27.6545 75.1978 27.7539C75.4222 27.8533 75.7106 27.903 76.0629 27.903C76.5458 27.903 76.945 27.7851 77.2603 27.5493C77.5756 27.3164 77.7333 26.9442 77.7333 26.4329V25.1459H77.6523C77.5756 25.2851 77.4648 25.44 77.32 25.6104C77.1779 25.7809 76.9819 25.9286 76.7319 26.0536C76.4819 26.1786 76.1566 26.2411 75.756 26.2411C75.239 26.2411 74.7731 26.1204 74.3583 25.8789C73.9464 25.6346 73.6197 25.2752 73.3782 24.8008C73.1396 24.3235 73.0202 23.7368 73.0202 23.0408C73.0202 22.3448 73.1381 21.7482 73.3739 21.251C73.6126 20.7539 73.9393 20.3732 74.354 20.109C74.7688 19.842 75.239 19.7084 75.7646 19.7084C76.1708 19.7084 76.4989 19.7766 76.7489 19.913C76.9989 20.0465 77.1935 20.2027 77.3327 20.3817C77.4748 20.5607 77.5842 20.7184 77.6609 20.8547H77.7546V19.7937H79.0032V26.484C79.0032 27.0465 78.8725 27.5081 78.6112 27.8689C78.3498 28.2297 77.9961 28.4968 77.5501 28.6701C77.1069 28.8434 76.6069 28.93 76.0501 28.93ZM76.0373 25.1843C76.4038 25.1843 76.7134 25.0991 76.9663 24.9286C77.2219 24.7553 77.4151 24.5081 77.5458 24.1871C77.6793 23.8633 77.7461 23.4755 77.7461 23.0238C77.7461 22.5834 77.6808 22.1956 77.5501 21.8604C77.4194 21.5252 77.2276 21.2638 76.9748 21.0763C76.7219 20.886 76.4094 20.7908 76.0373 20.7908C75.6538 20.7908 75.3342 20.8902 75.0785 21.0891C74.8228 21.2851 74.6296 21.5522 74.4989 21.8902C74.3711 22.2283 74.3072 22.6062 74.3072 23.0238C74.3072 23.4527 74.3725 23.8292 74.5032 24.153C74.6339 24.4769 74.8271 24.7297 75.0827 24.9116C75.3413 25.0934 75.6594 25.1843 76.0373 25.1843ZM81.9862 17.6118V26.3391H80.712V17.6118H81.9862ZM86.5213 26.4712C85.8764 26.4712 85.321 26.3334 84.8551 26.0579C84.392 25.7795 84.0341 25.3888 83.7812 24.886C83.5312 24.3803 83.4062 23.788 83.4062 23.109C83.4062 22.4385 83.5312 21.8476 83.7812 21.3363C84.0341 20.8249 84.3864 20.4258 84.8381 20.1388C85.2926 19.8519 85.8239 19.7084 86.4318 19.7084C86.8011 19.7084 87.1591 19.7695 87.5057 19.8917C87.8523 20.0138 88.1634 20.2056 88.4389 20.467C88.7145 20.7283 88.9318 21.0678 89.0909 21.4854C89.25 21.9002 89.3295 22.4045 89.3295 22.9982V23.4499H84.1264V22.4954H88.081C88.081 22.1601 88.0128 21.8633 87.8764 21.6047C87.7401 21.3434 87.5483 21.1374 87.3011 20.9868C87.0568 20.8363 86.7699 20.761 86.4403 20.761C86.0824 20.761 85.7699 20.8491 85.5028 21.0252C85.2386 21.1985 85.0341 21.4258 84.8892 21.707C84.7472 21.9854 84.6761 22.288 84.6761 22.6147V23.3604C84.6761 23.7979 84.7528 24.1701 84.9062 24.4769C85.0625 24.7837 85.2798 25.0181 85.5582 25.18C85.8366 25.3391 86.1619 25.4187 86.5341 25.4187C86.7756 25.4187 86.9957 25.3846 87.1946 25.3164C87.3935 25.2454 87.5653 25.1402 87.7102 25.001C87.8551 24.8618 87.9659 24.69 88.0426 24.4854L89.2486 24.7027C89.152 25.0579 88.9787 25.3689 88.7287 25.636C88.4815 25.9002 88.1705 26.1062 87.7955 26.2539C87.4233 26.3988 86.9986 26.4712 86.5213 26.4712ZM90.4867 25.1151H100.315V25.9431H90.4867V25.1151ZM94.8787 22.7871H95.8747V25.4631H94.8787V22.7871ZM91.6747 17.2311H99.1027V20.5191H92.6947V22.6911H91.7107V19.7151H98.1187V18.0351H91.6747V17.2311ZM91.7107 22.2711H99.3547V23.0871H91.7107V22.2711ZM108.902 19.4391H111.314V20.2431H108.902V19.4391ZM108.818 22.1631H111.29V22.9671H108.818V22.1631ZM112.958 16.4271H113.918V27.2751H112.958V16.4271ZM110.786 16.7031H111.722V26.7231H110.786V16.7031ZM108.362 17.7951H109.322C109.322 20.6391 108.182 23.1951 105.266 24.9351L104.69 24.2271C107.222 22.6911 108.362 20.5311 108.362 17.9751V17.7951ZM105.17 17.7951H108.758V18.6111H105.17V17.7951ZM115.729 21.8631H125.569V22.6791H115.729V21.8631ZM120.133 20.2191H121.117V22.2351H120.133V20.2191ZM120.121 16.5951H120.985V17.0751C120.985 19.0311 118.909 20.4231 116.701 20.7831L116.317 19.9911C118.261 19.7271 120.121 18.5271 120.121 17.0751V16.5951ZM120.277 16.5951H121.129V17.0751C121.129 18.5271 123.001 19.7271 124.933 19.9911L124.561 20.7831C122.365 20.4111 120.277 19.0311 120.277 17.0751V16.5951ZM116.821 23.7351H124.321V27.2751H123.325V24.5391H116.821V23.7351ZM134.124 16.4271H135.12V27.2751H134.124V16.4271ZM134.88 20.8791H136.896V21.7191H134.88V20.8791ZM126.72 18.1551H133.116V18.9711H126.72V18.1551ZM129.96 19.8711C131.496 19.8711 132.6 20.9031 132.6 22.3671C132.6 23.8311 131.496 24.8631 129.96 24.8631C128.436 24.8631 127.32 23.8311 127.32 22.3671C127.32 20.9031 128.436 19.8711 129.96 19.8711ZM129.96 20.6991C128.976 20.6991 128.268 21.3831 128.268 22.3671C128.268 23.3391 128.976 24.0351 129.96 24.0351C130.944 24.0351 131.652 23.3391 131.652 22.3671C131.652 21.3831 130.944 20.6991 129.96 20.6991ZM129.444 16.5591H130.44V18.5271H129.444V16.5591ZM145.715 16.4271H146.711V27.2751H145.715V16.4271ZM142.535 17.5911H143.519C143.519 20.7351 142.103 23.4831 138.479 25.2591L137.951 24.4551C141.083 22.9431 142.535 20.6391 142.535 17.7591V17.5911ZM138.443 17.5911H142.967V18.4071H138.443V17.5911Z" fill="black" fill-opacity="0.54"/>
</g>
<defs>
<filter id="filter0_d_383_1428" x="0" y="0.839111" width="222" height="44" filterUnits="userSpaceOnUse" color-interpolation-filters="sRGB">
<feFlood flood-opacity="0" result="BackgroundImageFix"/>
<feColorMatrix in="SourceAlpha" type="matrix" values="0 0 0 0 0 0 0 0 0 0 0 0 0 0 0 0 0 0 127 0" result="hardAlpha"/>
<feOffset dy="1"/>
<feGaussianBlur stdDeviation="1"/>
<feColorMatrix type="matrix" values="0 0 0 0 0 0 0 0 0 0 0 0 0 0 0 0 0 0 0.25 0"/>
<feBlend mode="normal" in2="BackgroundImageFix" result="effect1_dropShadow_383_1428"/>
<feBlend mode="normal" in="SourceGraphic" in2="effect1_dropShadow_383_1428" result="shape"/>
</filter>
</defs>
</svg>
