<svg width="225" height="40" viewBox="0 0 225 40" fill="none" xmlns="http://www.w3.org/2000/svg">
<g filter="url(#filter0_d_475_2032)">
<rect x="2" y="1" width="225" height="40" rx="4" fill="white"/>
<path fill-rule="evenodd" clip-rule="evenodd" d="M33.64 21.2046C33.64 20.5664 33.5827 19.9527 33.4764 19.3636H25V22.845H29.8436C29.635 23.97 29.0009 24.9232 28.0477 25.5614V27.8196H30.9564C32.6582 26.2527 33.64 23.9455 33.64 21.2046Z" fill="#4285F4"/>
<path fill-rule="evenodd" clip-rule="evenodd" d="M25 30C27.43 30 29.4673 29.1941 30.9564 27.8195L28.0477 25.5613C27.2418 26.1013 26.2109 26.4204 25 26.4204C22.6559 26.4204 20.6718 24.8372 19.9641 22.71H16.9573V25.0418C18.4382 27.9831 21.4818 30 25 30Z" fill="#34A853"/>
<path fill-rule="evenodd" clip-rule="evenodd" d="M19.9641 22.7099C19.7841 22.1699 19.6818 21.5931 19.6818 20.9999C19.6818 20.4068 19.7841 19.8299 19.9641 19.2899V16.9581H16.9573C16.3477 18.1731 16 19.5477 16 20.9999C16 22.4522 16.3477 23.8268 16.9573 25.0418L19.9641 22.7099Z" fill="#FBBC05"/>
<path fill-rule="evenodd" clip-rule="evenodd" d="M25 15.5795C26.3214 15.5795 27.5077 16.0336 28.4405 16.9255L31.0218 14.3441C29.4632 12.8918 27.4259 12 25 12C21.4818 12 18.4382 14.0168 16.9573 16.9582L19.9641 19.29C20.6718 17.1627 22.6559 15.5795 25 15.5795Z" fill="#EA4335"/>
<path d="M55.8651 19.5298C55.7827 19.2713 55.6719 19.0398 55.5327 18.8352C55.3963 18.6278 55.233 18.4517 55.0426 18.3068C54.8523 18.1591 54.6349 18.0469 54.3906 17.9702C54.1491 17.8935 53.8835 17.8551 53.5938 17.8551C53.1023 17.8551 52.6591 17.9815 52.2642 18.2344C51.8693 18.4872 51.5568 18.858 51.3267 19.3466C51.0994 19.8324 50.9858 20.4276 50.9858 21.1321C50.9858 21.8395 51.1009 22.4375 51.331 22.9261C51.5611 23.4148 51.8764 23.7855 52.277 24.0384C52.6776 24.2912 53.1335 24.4176 53.6449 24.4176C54.1193 24.4176 54.5327 24.321 54.8849 24.1278C55.2401 23.9347 55.5142 23.6619 55.7074 23.3097C55.9034 22.9545 56.0014 22.5369 56.0014 22.0568L56.3423 22.1207H53.8452V21.0341H57.2756V22.027C57.2756 22.7599 57.1193 23.3963 56.8068 23.9361C56.4972 24.473 56.0682 24.8878 55.5199 25.1804C54.9744 25.473 54.3494 25.6193 53.6449 25.6193C52.8551 25.6193 52.1619 25.4375 51.5653 25.0739C50.9716 24.7102 50.5085 24.1946 50.1761 23.527C49.8438 22.8565 49.6776 22.0611 49.6776 21.1406C49.6776 20.4446 49.7741 19.8196 49.9673 19.2656C50.1605 18.7116 50.4318 18.2415 50.7812 17.8551C51.1335 17.4659 51.5469 17.169 52.0213 16.9645C52.4986 16.7571 53.0199 16.6534 53.5852 16.6534C54.0568 16.6534 54.4957 16.723 54.902 16.8622C55.3111 17.0014 55.6747 17.1989 55.9929 17.4545C56.3139 17.7102 56.5795 18.0142 56.7898 18.3665C57 18.7159 57.142 19.1037 57.2159 19.5298H55.8651ZM61.6019 25.6321C60.9883 25.6321 60.4528 25.4915 59.9954 25.2102C59.538 24.929 59.1829 24.5355 58.93 24.0298C58.6772 23.5241 58.5508 22.9332 58.5508 22.2571C58.5508 21.5781 58.6772 20.9844 58.93 20.4759C59.1829 19.9673 59.538 19.5724 59.9954 19.2912C60.4528 19.0099 60.9883 18.8693 61.6019 18.8693C62.2156 18.8693 62.7511 19.0099 63.2085 19.2912C63.6658 19.5724 64.021 19.9673 64.2738 20.4759C64.5266 20.9844 64.6531 21.5781 64.6531 22.2571C64.6531 22.9332 64.5266 23.5241 64.2738 24.0298C64.021 24.5355 63.6658 24.929 63.2085 25.2102C62.7511 25.4915 62.2156 25.6321 61.6019 25.6321ZM61.6062 24.5625C62.0039 24.5625 62.3335 24.4574 62.5948 24.2472C62.8562 24.0369 63.0494 23.7571 63.1744 23.4077C63.3022 23.0582 63.3661 22.6733 63.3661 22.2528C63.3661 21.8352 63.3022 21.4517 63.1744 21.1023C63.0494 20.75 62.8562 20.4673 62.5948 20.2543C62.3335 20.0412 62.0039 19.9347 61.6062 19.9347C61.2056 19.9347 60.8732 20.0412 60.609 20.2543C60.3477 20.4673 60.1531 20.75 60.0252 21.1023C59.9002 21.4517 59.8377 21.8352 59.8377 22.2528C59.8377 22.6733 59.9002 23.0582 60.0252 23.4077C60.1531 23.7571 60.3477 24.0369 60.609 24.2472C60.8732 24.4574 61.2056 24.5625 61.6062 24.5625ZM68.8324 25.6321C68.2188 25.6321 67.6832 25.4915 67.2259 25.2102C66.7685 24.929 66.4134 24.5355 66.1605 24.0298C65.9077 23.5241 65.7812 22.9332 65.7812 22.2571C65.7812 21.5781 65.9077 20.9844 66.1605 20.4759C66.4134 19.9673 66.7685 19.5724 67.2259 19.2912C67.6832 19.0099 68.2188 18.8693 68.8324 18.8693C69.446 18.8693 69.9815 19.0099 70.4389 19.2912C70.8963 19.5724 71.2514 19.9673 71.5043 20.4759C71.7571 20.9844 71.8835 21.5781 71.8835 22.2571C71.8835 22.9332 71.7571 23.5241 71.5043 24.0298C71.2514 24.5355 70.8963 24.929 70.4389 25.2102C69.9815 25.4915 69.446 25.6321 68.8324 25.6321ZM68.8366 24.5625C69.2344 24.5625 69.5639 24.4574 69.8253 24.2472C70.0866 24.0369 70.2798 23.7571 70.4048 23.4077C70.5327 23.0582 70.5966 22.6733 70.5966 22.2528C70.5966 21.8352 70.5327 21.4517 70.4048 21.1023C70.2798 20.75 70.0866 20.4673 69.8253 20.2543C69.5639 20.0412 69.2344 19.9347 68.8366 19.9347C68.4361 19.9347 68.1037 20.0412 67.8395 20.2543C67.5781 20.4673 67.3835 20.75 67.2557 21.1023C67.1307 21.4517 67.0682 21.8352 67.0682 22.2528C67.0682 22.6733 67.1307 23.0582 67.2557 23.4077C67.3835 23.7571 67.5781 24.0369 67.8395 24.2472C68.1037 24.4574 68.4361 24.5625 68.8366 24.5625ZM76.0501 28.0909C75.5302 28.0909 75.0827 28.0227 74.7077 27.8864C74.3356 27.75 74.0316 27.5696 73.7958 27.3452C73.56 27.1207 73.3839 26.875 73.2674 26.608L74.3626 26.1562C74.4393 26.2812 74.5415 26.4134 74.6694 26.5526C74.8001 26.6946 74.9762 26.8153 75.1978 26.9148C75.4222 27.0142 75.7106 27.0639 76.0629 27.0639C76.5458 27.0639 76.945 26.946 77.2603 26.7102C77.5756 26.4773 77.7333 26.1051 77.7333 25.5938V24.3068H77.6523C77.5756 24.446 77.4648 24.6009 77.32 24.7713C77.1779 24.9418 76.9819 25.0895 76.7319 25.2145C76.4819 25.3395 76.1566 25.402 75.756 25.402C75.239 25.402 74.7731 25.2812 74.3583 25.0398C73.9464 24.7955 73.6197 24.4361 73.3782 23.9616C73.1396 23.4844 73.0202 22.8977 73.0202 22.2017C73.0202 21.5057 73.1381 20.9091 73.3739 20.4119C73.6126 19.9148 73.9393 19.5341 74.354 19.2699C74.7688 19.0028 75.239 18.8693 75.7646 18.8693C76.1708 18.8693 76.4989 18.9375 76.7489 19.0739C76.9989 19.2074 77.1935 19.3636 77.3327 19.5426C77.4748 19.7216 77.5842 19.8793 77.6609 20.0156H77.7546V18.9545H79.0032V25.6449C79.0032 26.2074 78.8725 26.669 78.6112 27.0298C78.3498 27.3906 77.9961 27.6577 77.5501 27.831C77.1069 28.0043 76.6069 28.0909 76.0501 28.0909ZM76.0373 24.3452C76.4038 24.3452 76.7134 24.2599 76.9663 24.0895C77.2219 23.9162 77.4151 23.669 77.5458 23.348C77.6793 23.0241 77.7461 22.6364 77.7461 22.1847C77.7461 21.7443 77.6808 21.3565 77.5501 21.0213C77.4194 20.6861 77.2276 20.4247 76.9748 20.2372C76.7219 20.0469 76.4094 19.9517 76.0373 19.9517C75.6538 19.9517 75.3342 20.0511 75.0785 20.25C74.8228 20.446 74.6296 20.7131 74.4989 21.0511C74.3711 21.3892 74.3072 21.767 74.3072 22.1847C74.3072 22.6136 74.3725 22.9901 74.5032 23.3139C74.6339 23.6378 74.8271 23.8906 75.0827 24.0724C75.3413 24.2543 75.6594 24.3452 76.0373 24.3452ZM81.9862 16.7727V25.5H80.712V16.7727H81.9862ZM86.5213 25.6321C85.8764 25.6321 85.321 25.4943 84.8551 25.2188C84.392 24.9403 84.0341 24.5497 83.7812 24.0469C83.5312 23.5412 83.4062 22.9489 83.4062 22.2699C83.4062 21.5994 83.5312 21.0085 83.7812 20.4972C84.0341 19.9858 84.3864 19.5866 84.8381 19.2997C85.2926 19.0128 85.8239 18.8693 86.4318 18.8693C86.8011 18.8693 87.1591 18.9304 87.5057 19.0526C87.8523 19.1747 88.1634 19.3665 88.4389 19.6278C88.7145 19.8892 88.9318 20.2287 89.0909 20.6463C89.25 21.0611 89.3295 21.5653 89.3295 22.1591V22.6108H84.1264V21.6562H88.081C88.081 21.321 88.0128 21.0241 87.8764 20.7656C87.7401 20.5043 87.5483 20.2983 87.3011 20.1477C87.0568 19.9972 86.7699 19.9219 86.4403 19.9219C86.0824 19.9219 85.7699 20.0099 85.5028 20.1861C85.2386 20.3594 85.0341 20.5866 84.8892 20.8679C84.7472 21.1463 84.6761 21.4489 84.6761 21.7756V22.5213C84.6761 22.9588 84.7528 23.331 84.9062 23.6378C85.0625 23.9446 85.2798 24.179 85.5582 24.3409C85.8366 24.5 86.1619 24.5795 86.5341 24.5795C86.7756 24.5795 86.9957 24.5455 87.1946 24.4773C87.3935 24.4062 87.5653 24.3011 87.7102 24.1619C87.8551 24.0227 87.9659 23.8509 88.0426 23.6463L89.2486 23.8636C89.152 24.2187 88.9787 24.5298 88.7287 24.7969C88.4815 25.0611 88.1705 25.267 87.7955 25.4148C87.4233 25.5597 86.9986 25.6321 86.5213 25.6321ZM90.4867 24.276H100.315V25.104H90.4867V24.276ZM94.8787 21.948H95.8747V24.624H94.8787V21.948ZM91.6747 16.392H99.1027V19.68H92.6947V21.852H91.7107V18.876H98.1187V17.196H91.6747V16.392ZM91.7107 21.432H99.3547V22.248H91.7107V21.432ZM104.702 24.276H114.53V25.104H104.702V24.276ZM109.094 21.948H110.09V24.624H109.094V21.948ZM105.89 16.392H113.318V19.68H106.91V21.852H105.926V18.876H112.334V17.196H105.89V16.392ZM105.926 21.432H113.57V22.248H105.926V21.432ZM116.797 16.74H123.781V17.544H116.797V16.74ZM115.741 24.024H125.545V24.852H115.741V24.024ZM123.253 16.74H124.225V17.82C124.225 19.212 124.225 20.76 123.817 23.1L122.821 23.004C123.253 20.784 123.253 19.164 123.253 17.82V16.74ZM134.664 15.6H135.672V23.52H134.664V15.6ZM128.7 25.38H135.996V26.196H128.7V25.38ZM128.7 22.704H129.684V25.656H128.7V22.704ZM129.852 16.344C131.472 16.344 132.672 17.448 132.672 19.02C132.672 20.58 131.472 21.696 129.852 21.696C128.232 21.696 127.02 20.58 127.02 19.02C127.02 17.448 128.232 16.344 129.852 16.344ZM129.852 17.208C128.796 17.208 127.992 17.952 127.992 19.02C127.992 20.076 128.796 20.82 129.852 20.82C130.908 20.82 131.712 20.076 131.712 19.02C131.712 17.952 130.908 17.208 129.852 17.208ZM145.163 15.588H146.159V26.436H145.163V15.588ZM145.919 20.04H147.935V20.88H145.919V20.04ZM137.759 17.316H144.155V18.132H137.759V17.316ZM140.999 19.032C142.535 19.032 143.639 20.064 143.639 21.528C143.639 22.992 142.535 24.024 140.999 24.024C139.475 24.024 138.359 22.992 138.359 21.528C138.359 20.064 139.475 19.032 140.999 19.032ZM140.999 19.86C140.015 19.86 139.307 20.544 139.307 21.528C139.307 22.5 140.015 23.196 140.999 23.196C141.983 23.196 142.691 22.5 142.691 21.528C142.691 20.544 141.983 19.86 140.999 19.86ZM140.483 15.72H141.479V17.688H140.483V15.72ZM156.754 15.588H157.75V26.436H156.754V15.588ZM153.574 16.752H154.558C154.558 19.896 153.142 22.644 149.518 24.42L148.99 23.616C152.122 22.104 153.574 19.8 153.574 16.92V16.752ZM149.482 16.752H154.006V17.568H149.482V16.752Z" fill="black" fill-opacity="0.54"/>
</g>
<defs>
<filter id="filter0_d_475_2032" x="0" y="0" width="222" height="44" filterUnits="userSpaceOnUse" color-interpolation-filters="sRGB">
<feFlood flood-opacity="0" result="BackgroundImageFix"/>
<feColorMatrix in="SourceAlpha" type="matrix" values="0 0 0 0 0 0 0 0 0 0 0 0 0 0 0 0 0 0 127 0" result="hardAlpha"/>
<feOffset dy="1"/>
<feGaussianBlur stdDeviation="1"/>
<feColorMatrix type="matrix" values="0 0 0 0 0 0 0 0 0 0 0 0 0 0 0 0 0 0 0.25 0"/>
<feBlend mode="normal" in2="BackgroundImageFix" result="effect1_dropShadow_475_2032"/>
<feBlend mode="normal" in="SourceGraphic" in2="effect1_dropShadow_475_2032" result="shape"/>
</filter>
</defs>
</svg>
