<svg width="225" height="40" viewBox="0 0 225 40" fill="none" xmlns="http://www.w3.org/2000/svg">
<rect width="225" height="40" rx="4" fill="#FEE500"/>
<g clip-path="url(#clip0_474_2026)">
<path fill-rule="evenodd" clip-rule="evenodd" d="M23 11.6C18.0292 11.6 14 14.7129 14 18.5523C14 20.94 15.5584 23.0449 17.9315 24.2969L16.933 27.9445C16.8448 28.2668 17.2134 28.5237 17.4965 28.3369L21.8733 25.4482C22.2427 25.4838 22.6181 25.5046 23 25.5046C27.9705 25.5046 31.9999 22.3918 31.9999 18.5523C31.9999 14.7129 27.9705 11.6 23 11.6" fill="black"/>
</g>
<g clip-path="url(#clip1_474_2026)">
<path d="M52.2079 15.216H53.1799C53.1799 18.348 52.1239 21.228 48.2359 23.16L47.6959 22.392C51.1279 20.7 52.2079 18.276 52.2079 15.324V15.216ZM48.2839 15.216H52.7959V16.02H48.2839V15.216ZM52.0519 17.904V18.672L47.8999 19.08L47.7439 18.192L52.0519 17.904ZM54.9319 14.076H55.9399V24.936H54.9319V14.076ZM55.6639 18.48H57.6679V19.308H55.6639V18.48ZM63.2469 15.216H64.2189C64.2189 18.348 63.1629 21.228 59.2749 23.16L58.7349 22.392C62.1669 20.7 63.2469 18.276 63.2469 15.324V15.216ZM59.3229 15.216H63.8349V16.02H59.3229V15.216ZM63.0909 17.904V18.672L58.9389 19.08L58.7829 18.192L63.0909 17.904ZM65.9709 14.076H66.9789V24.936H65.9709V14.076ZM66.7029 18.48H68.7069V19.308H66.7029V18.48ZM74.07 20.22H75.066V22.92H74.07V20.22ZM74.574 14.796C76.866 14.796 78.51 15.912 78.51 17.64C78.51 19.368 76.866 20.484 74.574 20.484C72.282 20.484 70.626 19.368 70.626 17.64C70.626 15.912 72.282 14.796 74.574 14.796ZM74.574 15.588C72.846 15.588 71.586 16.404 71.586 17.64C71.586 18.876 72.846 19.692 74.574 19.692C76.29 19.692 77.55 18.876 77.55 17.64C77.55 16.404 76.29 15.588 74.574 15.588ZM69.678 22.728H79.506V23.556H69.678V22.728ZM80.7171 22.776H90.5451V23.604H80.7171V22.776ZM85.1091 20.448H86.1051V23.124H85.1091V20.448ZM81.9051 14.892H89.3331V18.18H82.9251V20.352H81.9411V17.376H88.3491V15.696H81.9051V14.892ZM81.9411 19.932H89.5851V20.748H81.9411V19.932ZM95.1311 22.776H104.959V23.604H95.1311V22.776ZM99.5231 20.448H100.519V23.124H99.5231V20.448ZM96.3191 14.892H103.747V18.18H97.3391V20.352H96.3551V17.376H102.763V15.696H96.3191V14.892ZM96.3551 19.932H103.999V20.748H96.3551V19.932ZM107.226 15.24H114.21V16.044H107.226V15.24ZM106.17 22.524H115.974V23.352H106.17V22.524ZM113.682 15.24H114.654V16.32C114.654 17.712 114.654 19.26 114.246 21.6L113.25 21.504C113.682 19.284 113.682 17.664 113.682 16.32V15.24ZM125.093 14.1H126.101V22.02H125.093V14.1ZM119.129 23.88H126.425V24.696H119.129V23.88ZM119.129 21.204H120.113V24.156H119.129V21.204ZM120.281 14.844C121.901 14.844 123.101 15.948 123.101 17.52C123.101 19.08 121.901 20.196 120.281 20.196C118.661 20.196 117.449 19.08 117.449 17.52C117.449 15.948 118.661 14.844 120.281 14.844ZM120.281 15.708C119.225 15.708 118.421 16.452 118.421 17.52C118.421 18.576 119.225 19.32 120.281 19.32C121.337 19.32 122.141 18.576 122.141 17.52C122.141 16.452 121.337 15.708 120.281 15.708ZM135.592 14.088H136.588V24.936H135.592V14.088ZM136.348 18.54H138.364V19.38H136.348V18.54ZM128.188 15.816H134.584V16.632H128.188V15.816ZM131.428 17.532C132.964 17.532 134.068 18.564 134.068 20.028C134.068 21.492 132.964 22.524 131.428 22.524C129.904 22.524 128.788 21.492 128.788 20.028C128.788 18.564 129.904 17.532 131.428 17.532ZM131.428 18.36C130.444 18.36 129.736 19.044 129.736 20.028C129.736 21 130.444 21.696 131.428 21.696C132.412 21.696 133.12 21 133.12 20.028C133.12 19.044 132.412 18.36 131.428 18.36ZM130.912 14.22H131.908V16.188H130.912V14.22ZM147.183 14.088H148.179V24.936H147.183V14.088ZM144.003 15.252H144.987C144.987 18.396 143.571 21.144 139.947 22.92L139.419 22.116C142.551 20.604 144.003 18.3 144.003 15.42V15.252ZM139.911 15.252H144.435V16.068H139.911V15.252Z" fill="black" fill-opacity="0.85"/>
</g>
<defs>
<clipPath id="clip0_474_2026">
<rect width="17.9999" height="18" fill="white" transform="translate(14 11)"/>
</clipPath>
<clipPath id="clip1_474_2026">
<rect width="103" height="18" fill="white" transform="translate(46.9999 11)"/>
</clipPath>
</defs>
</svg>
