<svg width="218" height="41" viewBox="0 0 218 41" fill="none" xmlns="http://www.w3.org/2000/svg">
<rect y="0.839111" width="218" height="40" rx="4" fill="#FEE500"/>
<g clip-path="url(#clip0_383_1424)">
<path fill-rule="evenodd" clip-rule="evenodd" d="M23 12.4392C18.0292 12.4392 14 15.5522 14 19.3915C14 21.7792 15.5584 23.8842 17.9315 25.1362L16.933 28.7837C16.8448 29.106 17.2134 29.3629 17.4965 29.1761L21.8733 26.2874C22.2427 26.3231 22.6181 26.3439 23 26.3439C27.9705 26.3439 31.9999 23.231 31.9999 19.3915C31.9999 15.5522 27.9705 12.4392 23 12.4392Z" fill="black"/>
</g>
<g clip-path="url(#clip1_383_1424)">
<path d="M52.2079 16.0551H53.1799C53.1799 19.1871 52.1239 22.0671 48.2359 23.9991L47.6959 23.2311C51.1279 21.5391 52.2079 19.1151 52.2079 16.1631V16.0551ZM48.2839 16.0551H52.7959V16.8591H48.2839V16.0551ZM52.0519 18.7431V19.5111L47.8999 19.9191L47.7439 19.0311L52.0519 18.7431ZM54.9319 14.9151H55.9399V25.7751H54.9319V14.9151ZM55.6639 19.3191H57.6679V20.1471H55.6639V19.3191ZM63.2469 16.0551H64.2189C64.2189 19.1871 63.1629 22.0671 59.2749 23.9991L58.7349 23.2311C62.1669 21.5391 63.2469 19.1151 63.2469 16.1631V16.0551ZM59.3229 16.0551H63.8349V16.8591H59.3229V16.0551ZM63.0909 18.7431V19.5111L58.9389 19.9191L58.7829 19.0311L63.0909 18.7431ZM65.9709 14.9151H66.9789V25.7751H65.9709V14.9151ZM66.7029 19.3191H68.7069V20.1471H66.7029V19.3191ZM74.07 21.0591H75.066V23.7591H74.07V21.0591ZM74.574 15.6351C76.866 15.6351 78.51 16.7511 78.51 18.4791C78.51 20.2071 76.866 21.3231 74.574 21.3231C72.282 21.3231 70.626 20.2071 70.626 18.4791C70.626 16.7511 72.282 15.6351 74.574 15.6351ZM74.574 16.4271C72.846 16.4271 71.586 17.2431 71.586 18.4791C71.586 19.7151 72.846 20.5311 74.574 20.5311C76.29 20.5311 77.55 19.7151 77.55 18.4791C77.55 17.2431 76.29 16.4271 74.574 16.4271ZM69.678 23.5671H79.506V24.3951H69.678V23.5671ZM80.7171 23.6151H90.5451V24.4431H80.7171V23.6151ZM85.1091 21.2871H86.1051V23.9631H85.1091V21.2871ZM81.9051 15.7311H89.3331V19.0191H82.9251V21.1911H81.9411V18.2151H88.3491V16.5351H81.9051V15.7311ZM81.9411 20.7711H89.5851V21.5871H81.9411V20.7711ZM99.3311 17.9391H101.743V18.7431H99.3311V17.9391ZM99.2471 20.6631H101.719V21.4671H99.2471V20.6631ZM103.387 14.9271H104.347V25.7751H103.387V14.9271ZM101.215 15.2031H102.151V25.2231H101.215V15.2031ZM98.7911 16.2951H99.7511C99.7511 19.1391 98.6111 21.6951 95.6951 23.4351L95.1191 22.7271C97.6511 21.1911 98.7911 19.0311 98.7911 16.4751V16.2951ZM95.5991 16.2951H99.1871V17.1111H95.5991V16.2951ZM106.158 20.3631H115.998V21.1791H106.158V20.3631ZM110.562 18.7191H111.546V20.7351H110.562V18.7191ZM110.55 15.0951H111.414V15.5751C111.414 17.5311 109.338 18.9231 107.13 19.2831L106.746 18.4911C108.69 18.2271 110.55 17.0271 110.55 15.5751V15.0951ZM110.706 15.0951H111.558V15.5751C111.558 17.0271 113.43 18.2271 115.362 18.4911L114.99 19.2831C112.794 18.9111 110.706 17.5311 110.706 15.5751V15.0951ZM107.25 22.2351H114.75V25.7751H113.754V23.0391H107.25V22.2351ZM124.553 14.9271H125.549V25.7751H124.553V14.9271ZM125.309 19.3791H127.325V20.2191H125.309V19.3791ZM117.149 16.6551H123.545V17.4711H117.149V16.6551ZM120.389 18.3711C121.925 18.3711 123.029 19.4031 123.029 20.8671C123.029 22.3311 121.925 23.3631 120.389 23.3631C118.865 23.3631 117.749 22.3311 117.749 20.8671C117.749 19.4031 118.865 18.3711 120.389 18.3711ZM120.389 19.1991C119.405 19.1991 118.697 19.8831 118.697 20.8671C118.697 21.8391 119.405 22.5351 120.389 22.5351C121.373 22.5351 122.081 21.8391 122.081 20.8671C122.081 19.8831 121.373 19.1991 120.389 19.1991ZM119.873 15.0591H120.869V17.0271H119.873V15.0591ZM136.144 14.9271H137.14V25.7751H136.144V14.9271ZM132.964 16.0911H133.948C133.948 19.2351 132.532 21.9831 128.908 23.7591L128.38 22.9551C131.512 21.4431 132.964 19.1391 132.964 16.2591V16.0911ZM128.872 16.0911H133.396V16.9071H128.872V16.0911Z" fill="black" fill-opacity="0.85"/>
</g>
<defs>
<clipPath id="clip0_383_1424">
<rect width="17.9999" height="18" fill="white" transform="translate(14 11.8391)"/>
</clipPath>
<clipPath id="clip1_383_1424">
<rect width="92" height="18" fill="white" transform="translate(46.9999 11.8391)"/>
</clipPath>
</defs>
</svg>
