<svg width="218" height="41" viewBox="0 0 218 41" fill="none" xmlns="http://www.w3.org/2000/svg">
<rect y="0.839111" width="218" height="40" rx="4" fill="#03C75A"/>
<g clip-path="url(#clip0_383_1431)">
<path d="M24.8491 21.4018L18.9169 12.8391H14V28.8391H19.1509V20.2751L25.0831 28.8391H30V12.8391H24.8491V21.4018Z" fill="white"/>
</g>
<path d="M46.116 16.0911H47.1V22.4511H46.116V16.0911ZM46.116 22.1631H46.812C48.072 22.1631 49.248 22.1031 50.616 21.8271L50.748 22.6791C49.332 22.9671 48.12 23.0271 46.812 23.0271H46.116V22.1631ZM53.856 14.9271H54.816V25.7751H53.856V14.9271ZM49.128 18.5631H51.84V19.3911H49.128V18.5631ZM51.564 15.1791H52.5V25.2231H51.564V15.1791ZM64.5111 14.9151H65.5071V25.7871H64.5111V14.9151ZM59.7831 15.7551C61.3911 15.7551 62.5431 17.2311 62.5431 19.5351C62.5431 21.8511 61.3911 23.3271 59.7831 23.3271C58.1871 23.3271 57.0351 21.8511 57.0351 19.5351C57.0351 17.2311 58.1871 15.7551 59.7831 15.7551ZM59.7831 16.6551C58.7271 16.6551 57.9831 17.7831 57.9831 19.5351C57.9831 21.2991 58.7271 22.4511 59.7831 22.4511C60.8511 22.4511 61.5831 21.2991 61.5831 19.5351C61.5831 17.7831 60.8511 16.6551 59.7831 16.6551ZM75.6221 14.9151H76.6061V25.7871H75.6221V14.9151ZM72.7541 18.9471H75.9101V19.7631H72.7541V18.9471ZM68.1101 15.7791H69.0941V18.5991H72.1061V15.7791H73.0901V23.0631H68.1101V15.7791ZM69.0941 19.3911V22.2351H72.1061V19.3911H69.0941ZM78.7172 23.6151H88.5452V24.4431H78.7172V23.6151ZM83.1092 21.2871H84.1052V23.9631H83.1092V21.2871ZM79.9052 15.7311H87.3332V19.0191H80.9252V21.1911H79.9412V18.2151H86.3492V16.5351H79.9052V15.7311ZM79.9412 20.7711H87.5852V21.5871H79.9412V20.7711ZM97.3313 17.9391H99.7433V18.7431H97.3313V17.9391ZM97.2473 20.6631H99.7193V21.4671H97.2473V20.6631ZM101.387 14.9271H102.347V25.7751H101.387V14.9271ZM99.2153 15.2031H100.151V25.2231H99.2153V15.2031ZM96.7913 16.2951H97.7513C97.7513 19.1391 96.6113 21.6951 93.6953 23.4351L93.1193 22.7271C95.6513 21.1911 96.7913 19.0311 96.7913 16.4751V16.2951ZM93.5993 16.2951H97.1873V17.1111H93.5993V16.2951ZM104.158 20.3631H113.998V21.1791H104.158V20.3631ZM108.562 18.7191H109.546V20.7351H108.562V18.7191ZM108.55 15.0951H109.414V15.5751C109.414 17.5311 107.338 18.9231 105.13 19.2831L104.746 18.4911C106.69 18.2271 108.55 17.0271 108.55 15.5751V15.0951ZM108.706 15.0951H109.558V15.5751C109.558 17.0271 111.43 18.2271 113.362 18.4911L112.99 19.2831C110.794 18.9111 108.706 17.5311 108.706 15.5751V15.0951ZM105.25 22.2351H112.75V25.7751H111.754V23.0391H105.25V22.2351ZM122.553 14.9271H123.549V25.7751H122.553V14.9271ZM123.309 19.3791H125.325V20.2191H123.309V19.3791ZM115.149 16.6551H121.545V17.4711H115.149V16.6551ZM118.389 18.3711C119.925 18.3711 121.029 19.4031 121.029 20.8671C121.029 22.3311 119.925 23.3631 118.389 23.3631C116.865 23.3631 115.749 22.3311 115.749 20.8671C115.749 19.4031 116.865 18.3711 118.389 18.3711ZM118.389 19.1991C117.405 19.1991 116.697 19.8831 116.697 20.8671C116.697 21.8391 117.405 22.5351 118.389 22.5351C119.373 22.5351 120.081 21.8391 120.081 20.8671C120.081 19.8831 119.373 19.1991 118.389 19.1991ZM117.873 15.0591H118.869V17.0271H117.873V15.0591ZM134.144 14.9271H135.14V25.7751H134.144V14.9271ZM130.964 16.0911H131.948C131.948 19.2351 130.532 21.9831 126.908 23.7591L126.38 22.9551C129.512 21.4431 130.964 19.1391 130.964 16.2591V16.0911ZM126.872 16.0911H131.396V16.9071H126.872V16.0911Z" fill="white"/>
<defs>
<clipPath id="clip0_383_1431">
<rect width="16" height="16" fill="white" transform="translate(14 12.8391)"/>
</clipPath>
</defs>
</svg>
