<svg xmlns="http://www.w3.org/2000/svg" xml:space="preserve" width="999.980957px" height="1000px" x="0px" y="0px" viewBox="0 0 999.980957 1000"><path fill="#FFF" d="M999.981 499.996c0 276.148-223.856 500.004-499.977 500.004C223.856 1000 0 776.144 0 499.996S223.856.02 500.004.02c276.12 0 499.977 223.828 499.977 499.976"/><path fill="#00704A" d="M550.28 216.181c-4.39-.801-25.51-4.335-50.276-4.335s-45.887 3.534-50.304 4.335c-2.485.414-3.451-2.015-1.546-3.451 1.74-1.27 51.85-39.426 51.85-39.426s50.083 38.155 51.795 39.426c1.96 1.436.994 3.865-1.519 3.451m-86.582 247.572s-2.623.967-3.341 3.286c10.519 8.09 17.753 26.422 39.647 26.422 21.839 0 29.1-18.332 39.592-26.422-.718-2.32-3.313-3.286-3.313-3.286s-13.722 3.23-36.28 3.23-36.305-3.23-36.305-3.23m36.306-30.894c-6.074 0-7.427-2.292-11.568-2.264-3.949.028-11.624 3.12-13.28 6.046.11 1.463.635 2.76 1.684 3.92 8.89 1.354 12.866 6.295 23.164 6.295 10.27 0 14.274-4.941 23.137-6.294 1.049-1.16 1.6-2.458 1.684-3.92-1.657-2.927-9.304-6.02-13.253-6.047-4.141-.028-5.494 2.264-11.568 2.264m499.23 94.561c-.661 11.955-1.711 23.8-3.202 35.534-56.572 9.36-76.836-41.083-134.788-38.57 3.48 12.286 6.267 24.848 8.42 37.631 47.847-.028 67.119 44.644 120.294 38.073a469.806 469.806 0 0 1-10.05 40.42c-42.048 4.169-56.847-37.632-105.522-36.527.386 6.957.607 13.943.607 21.039 0 3.892-.11 7.786-.221 11.678 41.497-.497 55.025 37.824 94.562 36.058-4.942 13.418-10.492 26.588-16.538 39.426-28.437-1.518-38.212-37.963-81.447-35.065-1.325 9.305-2.927 18.582-4.915 27.694 37.576-2.652 45.639 31.943 72.53 34.704-6.847 12.562-14.22 24.71-22.088 36.554-15.958-8.53-29.762-34.29-59.939-35.891a380.924 380.924 0 0 0 8.145-29.1c-26.865 0-57.511-10.465-83.187-33.877 8.31-47.433-65.324-95.722-65.324-130.482 0-37.686 19.106-58.587 19.106-109.443 0-37.742-18.333-78.686-45.942-106.682-5.384-5.44-10.878-9.829-17.173-13.777 25.4 31.391 44.92 68.692 44.92 111.845 0 47.902-22.28 73.192-22.28 117.422 0 44.175 64.633 82.442 64.633 127.97 0 17.973-5.715 35.477-24.6 69.879 29.017 28.989 66.842 44.782 91.222 44.782 7.922 0 12.174-2.374 15.018-8.587a425.388 425.388 0 0 0 6.93-16.316c26.257 1.02 38.295 24.958 52.845 34.483a501.855 501.855 0 0 1-25.125 31.088c-9.746-10.795-22.86-28.99-42.048-34.042-3.397 6.681-7.096 13.253-10.907 19.713 16.511 4.5 27.859 21.15 36.583 32.082-9.415 9.8-19.244 19.16-29.431 28.162-6.378-9.912-16.345-22.557-27.472-29.322a320.726 320.726 0 0 1-12.838 16.29c9.497 6.433 17.863 17.919 23.275 27.361a509.28 509.28 0 0 1-36.61 26.892c-6.24-50.801-75.567-85.59-56.876-144.536-6.101 10.354-13.445 23.386-13.445 38.985 0 42.683 45.417 76.506 49.061 118.913a531.404 531.404 0 0 1-28.852 15.93c-1.628-46.604-49.779-97.543-49.779-135.837 0-42.63 55.909-85.505 55.909-135.92 0-50.387-64.468-85.285-64.468-129.543 0-44.23 27.389-69.686 27.389-126.368 0-41.525-19.686-83.573-50.194-110.437-5.384-4.75-10.657-8.56-17.063-11.845 28.742 34.457 45.39 65.765 45.39 113.226 0 53.286-31.392 82.883-31.392 135.12 0 52.153 63.253 81.2 63.253 129.847 0 48.675-58.918 89.702-58.918 139.647 0 45.5 51.933 90.945 52.706 144.894a501.78 501.78 0 0 1-34.705 13.584c6.626-54.529-51.822-110.769-51.822-155.247 0-48.649 61.1-90.394 61.1-142.878 0-52.43-62.122-76.837-62.122-130.648s38.156-83.628 38.156-143.099c0-46.328-22.888-88.018-56.35-113.86-.69-.525-1.381-1.077-2.126-1.601-3.148-2.32-5.688.496-3.48 3.285 23.635 29.542 36.307 59.415 36.307 103.673 0 54.39-43.788 98.565-43.788 151.299 0 62.148 58.807 79.957 58.807 130.95 0 51.022-63.06 91.856-63.06 145.998 0 50.221 59.692 105.965 49.45 163.999a514.004 514.004 0 0 1-36.417 7.98c11.154-72.199-47.323-124.049-47.323-171.288 0-51.133 65.268-96.716 65.268-146.688 0-47.075-46.853-62.48-53.01-110.714-.855-6.57-6.129-11.458-13.417-10.215-9.526 1.74-21.701 8.006-40.862 8.006s-31.364-6.267-40.917-8.006c-7.233-1.243-12.535 3.645-13.39 10.215-6.13 48.233-53.01 63.64-53.01 110.714 0 49.972 65.268 95.555 65.268 146.688 0 47.24-58.504 99.09-47.323 171.287a506.606 506.606 0 0 1-36.388-7.98C364 926.017 423.692 870.273 423.692 820.052c0-54.142-63.088-94.976-63.088-145.997 0-50.994 58.808-68.803 58.808-130.951 0-52.734-43.788-96.91-43.788-151.3 0-44.257 12.645-74.13 36.334-103.672 2.209-2.79-.359-5.605-3.534-3.285-.718.524-1.408 1.076-2.126 1.6-33.407 25.843-56.296 67.533-56.296 113.861 0 59.47 38.13 89.289 38.13 143.1s-62.122 78.217-62.122 130.647c0 52.484 61.1 94.23 61.1 142.878 0 44.478-58.422 100.718-51.85 155.247a507.267 507.267 0 0 1-34.706-13.584c.801-53.95 52.707-99.394 52.707-144.894 0-49.945-58.864-90.972-58.864-139.647 0-48.648 63.253-77.694 63.253-129.847 0-52.237-31.419-81.834-31.419-135.12 0-47.46 16.648-78.77 45.417-113.226-6.405 3.285-11.706 7.096-17.117 11.845-30.481 26.864-50.222 68.912-50.222 110.437 0 56.682 27.444 82.137 27.444 126.368 0 44.258-64.468 79.156-64.468 129.543 0 50.415 55.909 93.29 55.909 135.92 0 38.294-48.123 89.233-49.752 135.838a522.863 522.863 0 0 1-28.907-15.931c3.645-42.407 49.09-76.23 49.09-118.913 0-15.599-7.345-28.631-13.446-38.985 18.691 58.947-50.636 93.735-56.875 144.536-12.645-8.422-24.849-17.422-36.638-26.892 5.439-9.442 13.805-20.928 23.275-27.36a335.793 335.793 0 0 1-12.811-16.291c-11.154 6.765-21.093 19.41-27.471 29.322-10.188-9.001-20.017-18.361-29.432-28.162 8.752-10.933 20.044-27.581 36.555-32.082a379.587 379.587 0 0 1-10.878-19.713c-19.189 5.053-32.303 23.247-42.049 34.042a502.46 502.46 0 0 1-25.152-31.088c14.55-9.525 26.56-33.463 52.872-34.483a385.94 385.94 0 0 0 6.93 16.316c2.843 6.213 7.095 8.587 14.992 8.587 24.406 0 62.23-15.793 91.248-44.782-18.912-34.402-24.627-51.906-24.627-69.88 0-45.527 64.688-83.794 64.688-127.969 0-44.23-22.308-69.52-22.308-117.422 0-43.153 19.52-80.454 44.92-111.845-6.294 3.948-11.761 8.338-17.145 13.777-27.665 27.996-45.97 68.94-45.97 106.682 0 50.856 19.051 71.757 19.051 109.443 0 34.76-73.58 83.049-65.241 130.482-25.704 23.412-56.378 33.876-83.187 33.876a380.703 380.703 0 0 0 8.145 29.1c-30.232 1.602-44.064 27.362-59.967 35.892-7.841-11.844-15.24-23.992-22.088-36.554 26.864-2.761 34.954-37.356 72.53-34.704a369.75 369.75 0 0 1-4.942-27.694c-43.209-2.898-53.038 33.547-81.42 35.065-6.074-12.838-11.568-26.008-16.538-39.426 39.564 1.822 53.038-36.555 94.534-36.058-.11-3.892-.165-7.786-.165-11.678 0-7.096.193-14.082.58-21.039-48.676-1.105-63.474 40.696-105.551 36.527-3.865-13.253-7.233-26.726-10.022-40.42 53.148 6.571 72.447-38.1 120.266-38.073a353.824 353.824 0 0 1 8.448-37.631c-57.98-2.513-78.217 47.93-134.788 38.57-1.519-11.735-2.54-23.579-3.203-35.534 65.793 7.345 90.448-46.742 150.333-40.116a354.317 354.317 0 0 1 19.602-41.497C95.61 432.638 70.1 495.393.22 485.757 7.759 216.209 228.633 0 500.005 0S992.25 216.208 999.759 485.758c-69.879 9.635-95.39-53.12-170.487-39.95 7.372 13.307 13.97 27.167 19.63 41.496 59.885-6.626 84.513 47.46 150.333 40.116m-714.17-209.692c-36.803-15.075-81.364-11.596-119.465 12.866-5.88-35.423-25.07-66.87-52.457-85.865-3.81-2.623-7.73-.11-7.4 4.28 5.798 74.82-37.963 139.813-91.745 196.908 55.439 16.649 102.65-54.72 174.518-29.79a377.445 377.445 0 0 1 96.55-98.4m214.938-45.25c-46.411 0-85.285 26.256-95.473 60.16-.801 2.595.248 4.28 3.285 2.926 8.338-3.754 17.836-5.577 28.162-5.577 18.94 0 35.616 6.986 45.472 19.05 4.39 14.413 4.75 35.258-.193 47.157-7.786-1.738-10.602-7.786-18.194-7.786-7.62 0-13.529 5.357-26.422 5.357-12.921 0-14.44-6.101-22.889-6.101-9.994 0-11.844 10.297-11.844 21.894 0 51.712 47.543 122.86 98.096 122.86S598.1 461.27 598.1 409.557c0-11.597-2.402-21.536-12.839-22.889-5.19 3.728-9.967 7.096-21.894 7.096-12.92 0-16.483-5.357-24.103-5.357-9.166 0-8.255 19.355-19.16 20.46-7.234-17.478-7.62-39.868-1.574-59.83 9.856-12.065 26.56-19.05 45.472-19.05 10.298 0 19.907 1.822 28.162 5.576 3.01 1.354 4.058-.331 3.313-2.926-10.216-33.904-49.062-60.16-95.473-60.16m73.882 74.185c-11.126 0-24.158 3.423-32.386 12.535-.883 2.485-.883 6.185.36 8.67 20.154-6.931 37.99-7.18 46.549 2.43 4.583-4.17 6.074-7.953 6.074-12.287 0-6.71-6.82-11.348-20.597-11.348m-162.315 23.634c9.719-9.746 30.233-9.36 51.547-1.49.911-10.603-18.03-22.144-36.996-22.144-13.778 0-20.625 4.639-20.625 11.348 0 4.334 1.463 8.117 6.074 12.286m319.826-175.044c-36.637 2.597-68.47 15.186-94.203 36.142 10.934-31.006 24.821-58.09 42.38-84.402-46.604 4.942-85.643 22.032-114.109 51.16l-22.28-58.393 49.476-43.706-66.235-4.666-26.422-61.569-26.422 61.569-66.235 4.666 49.448 43.706-22.28 58.393c-28.466-29.128-67.477-46.218-114.11-51.16 17.533 26.312 31.448 53.396 42.38 84.402-25.73-20.956-57.564-33.545-94.23-36.142 21.977 28.245 41.497 58.395 55.909 90.753 1.629 3.672 5.135 4.859 8.946 2.982 50.166-24.932 106.764-38.985 166.594-38.985 59.829 0 116.373 14.053 166.594 38.985 3.81 1.877 7.261.69 8.89-2.982 14.44-32.358 33.905-62.508 55.91-90.753m80.01 220.875c71.923-24.93 119.107 46.439 174.547 29.79-53.784-57.095-97.516-122.087-91.747-196.908.36-4.39-3.616-6.903-7.343-4.28-27.388 18.995-46.604 50.442-52.513 85.865-38.073-24.462-82.634-27.94-119.437-12.866a376.793 376.793 0 0 1 96.494 98.399"/></svg>